<?xml version="1.0" encoding="UTF-8" standalone="no"?>
<!DOCTYPE svg PUBLIC "-//W3C//DTD SVG 1.1//EN" "http://www.w3.org/Graphics/SVG/1.1/DTD/svg11.dtd">
<svg width="100%" height="100%" viewBox="0 0 3325 490" version="1.1" xmlns="http://www.w3.org/2000/svg" xmlns:xlink="http://www.w3.org/1999/xlink" xml:space="preserve" style="fill-rule:evenodd;clip-rule:evenodd;stroke-linejoin:round;stroke-miterlimit:1.41421;">
    <g transform="matrix(1,0,0,1,-25.8735,-8.71839)">
        <g transform="matrix(1.05031,0,0,1.05031,-10.2965,-29.7591)">
            <circle cx="248.661" cy="269.899" r="214.223" style="fill:white;"/>
        </g>
        <g transform="matrix(0.845506,0,0,0.891705,31.2711,24.0083)">
            <g transform="matrix(1.42879,0,0,1.26363,-51.7401,-111.932)">
                <clipPath id="_clip1">
                    <rect x="93.519" y="147.146" width="124.167" height="248.495"/>
                </clipPath>
                <g clip-path="url(#_clip1)">
                    <path d="M210.471,161.737C211.912,158.855 214.716,157.056 217.766,157.056C220.817,157.056 223.621,158.855 225.062,161.737C251.679,214.972 342.014,395.641 342.014,395.641C342.014,395.641 173.973,395.641 114.263,395.641C109.897,395.641 105.852,393.183 103.609,389.166C101.367,385.149 101.257,380.165 103.32,376.039C127.436,327.808 189.234,204.211 210.471,161.737Z"/>
                </g>
            </g>
            <g transform="matrix(-1.42879,0,0,1.26363,569.132,-111.932)">
                <clipPath id="_clip2">
                    <rect x="93.519" y="147.146" width="124.167" height="248.495"/>
                </clipPath>
                <g clip-path="url(#_clip2)">
                    <path d="M210.471,161.737C211.912,158.855 214.716,157.056 217.766,157.056C220.817,157.056 223.621,158.855 225.062,161.737C251.679,214.972 342.014,395.641 342.014,395.641C342.014,395.641 173.973,395.641 114.263,395.641C109.897,395.641 105.852,393.183 103.609,389.166C101.367,385.149 101.257,380.165 103.32,376.039C127.436,327.808 189.234,204.211 210.471,161.737Z" style="fill:rgb(51,51,51);"/>
                </g>
            </g>
        </g>
        <rect x="122.388" y="367.422" width="7.237" height="2.834" style="fill:white;"/>
        <g transform="matrix(1.55168,0,0,1.26249,177.022,-96.1876)">
            <rect x="122.388" y="367.422" width="7.237" height="2.834" style="fill:white;"/>
        </g>
        <g transform="matrix(1.294,0,0,0.342059,-31.7478,254.833)">
            <path d="M214.154,154.37C216.414,149.85 219.118,149.85 221.378,154.37C234.884,181.382 283.239,278.091 314.474,340.561C317.614,346.841 319.218,360.406 318.363,373.446C317.508,386.485 314.413,395.641 310.862,395.641C263.126,395.641 172.407,395.641 124.671,395.641C121.119,395.641 118.025,386.485 117.17,373.446C116.315,360.406 117.919,346.841 121.059,340.561C152.294,278.091 200.648,181.382 214.154,154.37Z" style="fill:white;"/>
        </g>
        <g transform="matrix(1.44789,0,0,1.44789,-52.0575,-162.936)">
            <circle cx="121.596" cy="358.409" r="9.669"/>
        </g>
        <g transform="matrix(1.44789,0,0,1.44789,199.942,-162.936)">
            <circle cx="121.596" cy="358.409" r="9.669" style="fill:rgb(51,51,51);"/>
        </g>
    </g>
    <g transform="matrix(15.625,0,0,15.625,521.145,361.722)">
        <g>
            <g>
                <path d="M2.496,-16.8L3.744,-16.8L3.744,-9.024L14.496,-9.024L14.496,-16.8L15.744,-16.8L15.744,0L14.496,0L14.496,-7.872L3.744,-7.872L3.744,0L2.496,0L2.496,-16.8Z" style="fill:none;"/>
                <path d="M24.192,0.288C23.616,0.288 23.048,0.208 22.488,0.048C21.928,-0.112 21.424,-0.352 20.976,-0.672C20.528,-0.992 20.164,-1.392 19.884,-1.872C19.604,-2.352 19.464,-2.912 19.464,-3.552L19.464,-3.6C19.464,-4.24 19.596,-4.808 19.86,-5.304C20.124,-5.8 20.488,-6.216 20.952,-6.552C21.416,-6.888 21.976,-7.144 22.632,-7.32C23.288,-7.496 24.016,-7.584 24.816,-7.584C25.68,-7.584 26.424,-7.536 27.048,-7.44C27.672,-7.344 28.28,-7.216 28.872,-7.056L28.872,-7.584C28.872,-8.832 28.516,-9.768 27.804,-10.392C27.092,-11.016 26.104,-11.328 24.84,-11.328C24.088,-11.328 23.4,-11.236 22.776,-11.052C22.152,-10.868 21.56,-10.632 21,-10.344L20.568,-11.376C21.24,-11.696 21.92,-11.952 22.608,-12.144C23.296,-12.336 24.064,-12.432 24.912,-12.432C26.592,-12.432 27.88,-11.984 28.776,-11.088C29.608,-10.256 30.024,-9.104 30.024,-7.632L30.024,0L28.872,0L28.872,-2.04C28.664,-1.752 28.412,-1.468 28.116,-1.188C27.82,-0.908 27.48,-0.66 27.096,-0.444C26.712,-0.228 26.276,-0.052 25.788,0.084C25.3,0.22 24.768,0.288 24.192,0.288ZM24.264,-0.816C24.888,-0.816 25.48,-0.908 26.04,-1.092C26.6,-1.276 27.092,-1.532 27.516,-1.86C27.94,-2.188 28.276,-2.584 28.524,-3.048C28.772,-3.512 28.896,-4.024 28.896,-4.584L28.896,-5.976C28.384,-6.104 27.784,-6.228 27.096,-6.348C26.408,-6.468 25.624,-6.528 24.744,-6.528C23.448,-6.528 22.452,-6.268 21.756,-5.748C21.06,-5.228 20.712,-4.536 20.712,-3.672L20.712,-3.624C20.712,-3.176 20.808,-2.78 21,-2.436C21.192,-2.092 21.452,-1.8 21.78,-1.56C22.108,-1.32 22.488,-1.136 22.92,-1.008C23.352,-0.88 23.8,-0.816 24.264,-0.816Z" style="fill:none;"/>
                <path d="M34.248,-12.24L35.424,-12.24L35.424,-9.96C35.84,-10.68 36.4,-11.288 37.104,-11.784C37.808,-12.28 38.72,-12.528 39.84,-12.528C40.608,-12.528 41.296,-12.404 41.904,-12.156C42.512,-11.908 43.028,-11.56 43.452,-11.112C43.876,-10.664 44.196,-10.132 44.412,-9.516C44.628,-8.9 44.736,-8.224 44.736,-7.488L44.736,0L43.56,0L43.56,-7.272C43.56,-8.536 43.224,-9.548 42.552,-10.308C41.88,-11.068 40.92,-11.448 39.672,-11.448C39.064,-11.448 38.504,-11.34 37.992,-11.124C37.48,-10.908 37.032,-10.608 36.648,-10.224C36.264,-9.84 35.964,-9.38 35.748,-8.844C35.532,-8.308 35.424,-7.72 35.424,-7.08L35.424,0L34.248,0L34.248,-12.24Z" style="fill:none;"/>
                <path d="M54.12,0.288C53.384,0.288 52.66,0.144 51.948,-0.144C51.236,-0.432 50.6,-0.848 50.04,-1.392C49.48,-1.936 49.028,-2.604 48.684,-3.396C48.34,-4.188 48.168,-5.08 48.168,-6.072L48.168,-6.12C48.168,-7.112 48.34,-8.004 48.684,-8.796C49.028,-9.588 49.48,-10.26 50.04,-10.812C50.6,-11.364 51.236,-11.788 51.948,-12.084C52.66,-12.38 53.384,-12.528 54.12,-12.528C54.728,-12.528 55.288,-12.448 55.8,-12.288C56.312,-12.128 56.772,-11.912 57.18,-11.64C57.588,-11.368 57.956,-11.056 58.284,-10.704C58.612,-10.352 58.904,-9.984 59.16,-9.6L59.16,-17.52L60.336,-17.52L60.336,0L59.16,0L59.16,-2.736C58.888,-2.336 58.588,-1.952 58.26,-1.584C57.932,-1.216 57.564,-0.896 57.156,-0.624C56.748,-0.352 56.292,-0.132 55.788,0.036C55.284,0.204 54.728,0.288 54.12,0.288ZM54.24,-0.84C54.88,-0.84 55.5,-0.968 56.1,-1.224C56.7,-1.48 57.232,-1.84 57.696,-2.304C58.16,-2.768 58.532,-3.32 58.812,-3.96C59.092,-4.6 59.232,-5.312 59.232,-6.096L59.232,-6.144C59.232,-6.928 59.092,-7.644 58.812,-8.292C58.532,-8.94 58.16,-9.492 57.696,-9.948C57.232,-10.404 56.7,-10.76 56.1,-11.016C55.5,-11.272 54.88,-11.4 54.24,-11.4C53.568,-11.4 52.94,-11.28 52.356,-11.04C51.772,-10.8 51.264,-10.456 50.832,-10.008C50.4,-9.56 50.06,-9.012 49.812,-8.364C49.564,-7.716 49.44,-6.984 49.44,-6.168L49.44,-6.12C49.44,-5.32 49.568,-4.592 49.824,-3.936C50.08,-3.28 50.428,-2.724 50.868,-2.268C51.308,-1.812 51.82,-1.46 52.404,-1.212C52.988,-0.964 53.6,-0.84 54.24,-0.84Z" style="fill:none;"/>
                <rect x="64.968" y="-17.52" width="1.176" height="17.52" style="fill:none;"/>
                <path d="M75.936,0.288C75.136,0.288 74.372,0.136 73.644,-0.168C72.916,-0.472 72.276,-0.904 71.724,-1.464C71.172,-2.024 70.736,-2.696 70.416,-3.48C70.096,-4.264 69.936,-5.136 69.936,-6.096L69.936,-6.144C69.936,-7.024 70.084,-7.852 70.38,-8.628C70.676,-9.404 71.084,-10.08 71.604,-10.656C72.124,-11.232 72.736,-11.688 73.44,-12.024C74.144,-12.36 74.912,-12.528 75.744,-12.528C76.608,-12.528 77.384,-12.364 78.072,-12.036C78.76,-11.708 79.348,-11.256 79.836,-10.68C80.324,-10.104 80.7,-9.428 80.964,-8.652C81.228,-7.876 81.36,-7.032 81.36,-6.12C81.36,-6.008 81.36,-5.924 81.36,-5.868C81.36,-5.812 81.352,-5.736 81.336,-5.64L71.184,-5.64C71.232,-4.872 71.4,-4.192 71.688,-3.6C71.976,-3.008 72.336,-2.504 72.768,-2.088C73.2,-1.672 73.692,-1.356 74.244,-1.14C74.796,-0.924 75.376,-0.816 75.984,-0.816C76.944,-0.816 77.756,-1 78.42,-1.368C79.084,-1.736 79.672,-2.192 80.184,-2.736L81,-2.016C80.376,-1.344 79.668,-0.792 78.876,-0.36C78.084,0.072 77.104,0.288 75.936,0.288ZM80.088,-6.696C80.04,-7.32 79.916,-7.916 79.716,-8.484C79.516,-9.052 79.236,-9.556 78.876,-9.996C78.516,-10.436 78.072,-10.788 77.544,-11.052C77.016,-11.316 76.4,-11.448 75.696,-11.448C75.088,-11.448 74.52,-11.328 73.992,-11.088C73.464,-10.848 73.004,-10.516 72.612,-10.092C72.22,-9.668 71.896,-9.164 71.64,-8.58C71.384,-7.996 71.232,-7.368 71.184,-6.696L80.088,-6.696Z" style="fill:none;"/>
                <path d="M84.792,-12.24L85.968,-12.24L85.968,-8.76C86.208,-9.304 86.512,-9.808 86.88,-10.272C87.248,-10.736 87.664,-11.132 88.128,-11.46C88.592,-11.788 89.1,-12.036 89.652,-12.204C90.204,-12.372 90.784,-12.448 91.392,-12.432L91.392,-11.136L91.272,-11.136C90.568,-11.136 89.896,-11.004 89.256,-10.74C88.616,-10.476 88.052,-10.084 87.564,-9.564C87.076,-9.044 86.688,-8.404 86.4,-7.644C86.112,-6.884 85.968,-6.008 85.968,-5.016L85.968,0L84.792,0L84.792,-12.24Z" style="fill:none;"/>
                <path d="M2.496,-16.8L3.744,-16.8L3.744,-9.024L14.496,-9.024L14.496,-16.8L15.744,-16.8L15.744,0L14.496,0L14.496,-7.872L3.744,-7.872L3.744,0L2.496,0L2.496,-16.8Z" style="fill:white;fill-rule:nonzero;"/>
                <path d="M24.192,0.288C23.616,0.288 23.048,0.208 22.488,0.048C21.928,-0.112 21.424,-0.352 20.976,-0.672C20.528,-0.992 20.164,-1.392 19.884,-1.872C19.604,-2.352 19.464,-2.912 19.464,-3.552L19.464,-3.6C19.464,-4.24 19.596,-4.808 19.86,-5.304C20.124,-5.8 20.488,-6.216 20.952,-6.552C21.416,-6.888 21.976,-7.144 22.632,-7.32C23.288,-7.496 24.016,-7.584 24.816,-7.584C25.68,-7.584 26.424,-7.536 27.048,-7.44C27.672,-7.344 28.28,-7.216 28.872,-7.056L28.872,-7.584C28.872,-8.832 28.516,-9.768 27.804,-10.392C27.092,-11.016 26.104,-11.328 24.84,-11.328C24.088,-11.328 23.4,-11.236 22.776,-11.052C22.152,-10.868 21.56,-10.632 21,-10.344L20.568,-11.376C21.24,-11.696 21.92,-11.952 22.608,-12.144C23.296,-12.336 24.064,-12.432 24.912,-12.432C26.592,-12.432 27.88,-11.984 28.776,-11.088C29.608,-10.256 30.024,-9.104 30.024,-7.632L30.024,0L28.872,0L28.872,-2.04C28.664,-1.752 28.412,-1.468 28.116,-1.188C27.82,-0.908 27.48,-0.66 27.096,-0.444C26.712,-0.228 26.276,-0.052 25.788,0.084C25.3,0.22 24.768,0.288 24.192,0.288ZM24.264,-0.816C24.888,-0.816 25.48,-0.908 26.04,-1.092C26.6,-1.276 27.092,-1.532 27.516,-1.86C27.94,-2.188 28.276,-2.584 28.524,-3.048C28.772,-3.512 28.896,-4.024 28.896,-4.584L28.896,-5.976C28.384,-6.104 27.784,-6.228 27.096,-6.348C26.408,-6.468 25.624,-6.528 24.744,-6.528C23.448,-6.528 22.452,-6.268 21.756,-5.748C21.06,-5.228 20.712,-4.536 20.712,-3.672L20.712,-3.624C20.712,-3.176 20.808,-2.78 21,-2.436C21.192,-2.092 21.452,-1.8 21.78,-1.56C22.108,-1.32 22.488,-1.136 22.92,-1.008C23.352,-0.88 23.8,-0.816 24.264,-0.816Z" style="fill:white;fill-rule:nonzero;"/>
                <path d="M34.248,-12.24L35.424,-12.24L35.424,-9.96C35.84,-10.68 36.4,-11.288 37.104,-11.784C37.808,-12.28 38.72,-12.528 39.84,-12.528C40.608,-12.528 41.296,-12.404 41.904,-12.156C42.512,-11.908 43.028,-11.56 43.452,-11.112C43.876,-10.664 44.196,-10.132 44.412,-9.516C44.628,-8.9 44.736,-8.224 44.736,-7.488L44.736,0L43.56,0L43.56,-7.272C43.56,-8.536 43.224,-9.548 42.552,-10.308C41.88,-11.068 40.92,-11.448 39.672,-11.448C39.064,-11.448 38.504,-11.34 37.992,-11.124C37.48,-10.908 37.032,-10.608 36.648,-10.224C36.264,-9.84 35.964,-9.38 35.748,-8.844C35.532,-8.308 35.424,-7.72 35.424,-7.08L35.424,0L34.248,0L34.248,-12.24Z" style="fill:white;fill-rule:nonzero;"/>
                <path d="M54.12,0.288C53.384,0.288 52.66,0.144 51.948,-0.144C51.236,-0.432 50.6,-0.848 50.04,-1.392C49.48,-1.936 49.028,-2.604 48.684,-3.396C48.34,-4.188 48.168,-5.08 48.168,-6.072L48.168,-6.12C48.168,-7.112 48.34,-8.004 48.684,-8.796C49.028,-9.588 49.48,-10.26 50.04,-10.812C50.6,-11.364 51.236,-11.788 51.948,-12.084C52.66,-12.38 53.384,-12.528 54.12,-12.528C54.728,-12.528 55.288,-12.448 55.8,-12.288C56.312,-12.128 56.772,-11.912 57.18,-11.64C57.588,-11.368 57.956,-11.056 58.284,-10.704C58.612,-10.352 58.904,-9.984 59.16,-9.6L59.16,-17.52L60.336,-17.52L60.336,0L59.16,0L59.16,-2.736C58.888,-2.336 58.588,-1.952 58.26,-1.584C57.932,-1.216 57.564,-0.896 57.156,-0.624C56.748,-0.352 56.292,-0.132 55.788,0.036C55.284,0.204 54.728,0.288 54.12,0.288ZM54.24,-0.84C54.88,-0.84 55.5,-0.968 56.1,-1.224C56.7,-1.48 57.232,-1.84 57.696,-2.304C58.16,-2.768 58.532,-3.32 58.812,-3.96C59.092,-4.6 59.232,-5.312 59.232,-6.096L59.232,-6.144C59.232,-6.928 59.092,-7.644 58.812,-8.292C58.532,-8.94 58.16,-9.492 57.696,-9.948C57.232,-10.404 56.7,-10.76 56.1,-11.016C55.5,-11.272 54.88,-11.4 54.24,-11.4C53.568,-11.4 52.94,-11.28 52.356,-11.04C51.772,-10.8 51.264,-10.456 50.832,-10.008C50.4,-9.56 50.06,-9.012 49.812,-8.364C49.564,-7.716 49.44,-6.984 49.44,-6.168L49.44,-6.12C49.44,-5.32 49.568,-4.592 49.824,-3.936C50.08,-3.28 50.428,-2.724 50.868,-2.268C51.308,-1.812 51.82,-1.46 52.404,-1.212C52.988,-0.964 53.6,-0.84 54.24,-0.84Z" style="fill:white;fill-rule:nonzero;"/>
                <rect x="64.968" y="-17.52" width="1.176" height="17.52" style="fill:white;fill-rule:nonzero;"/>
                <path d="M75.936,0.288C75.136,0.288 74.372,0.136 73.644,-0.168C72.916,-0.472 72.276,-0.904 71.724,-1.464C71.172,-2.024 70.736,-2.696 70.416,-3.48C70.096,-4.264 69.936,-5.136 69.936,-6.096L69.936,-6.144C69.936,-7.024 70.084,-7.852 70.38,-8.628C70.676,-9.404 71.084,-10.08 71.604,-10.656C72.124,-11.232 72.736,-11.688 73.44,-12.024C74.144,-12.36 74.912,-12.528 75.744,-12.528C76.608,-12.528 77.384,-12.364 78.072,-12.036C78.76,-11.708 79.348,-11.256 79.836,-10.68C80.324,-10.104 80.7,-9.428 80.964,-8.652C81.228,-7.876 81.36,-7.032 81.36,-6.12C81.36,-6.008 81.36,-5.924 81.36,-5.868C81.36,-5.812 81.352,-5.736 81.336,-5.64L71.184,-5.64C71.232,-4.872 71.4,-4.192 71.688,-3.6C71.976,-3.008 72.336,-2.504 72.768,-2.088C73.2,-1.672 73.692,-1.356 74.244,-1.14C74.796,-0.924 75.376,-0.816 75.984,-0.816C76.944,-0.816 77.756,-1 78.42,-1.368C79.084,-1.736 79.672,-2.192 80.184,-2.736L81,-2.016C80.376,-1.344 79.668,-0.792 78.876,-0.36C78.084,0.072 77.104,0.288 75.936,0.288ZM80.088,-6.696C80.04,-7.32 79.916,-7.916 79.716,-8.484C79.516,-9.052 79.236,-9.556 78.876,-9.996C78.516,-10.436 78.072,-10.788 77.544,-11.052C77.016,-11.316 76.4,-11.448 75.696,-11.448C75.088,-11.448 74.52,-11.328 73.992,-11.088C73.464,-10.848 73.004,-10.516 72.612,-10.092C72.22,-9.668 71.896,-9.164 71.64,-8.58C71.384,-7.996 71.232,-7.368 71.184,-6.696L80.088,-6.696Z" style="fill:white;fill-rule:nonzero;"/>
                <path d="M84.792,-12.24L85.968,-12.24L85.968,-8.76C86.208,-9.304 86.512,-9.808 86.88,-10.272C87.248,-10.736 87.664,-11.132 88.128,-11.46C88.592,-11.788 89.1,-12.036 89.652,-12.204C90.204,-12.372 90.784,-12.448 91.392,-12.432L91.392,-11.136L91.272,-11.136C90.568,-11.136 89.896,-11.004 89.256,-10.74C88.616,-10.476 88.052,-10.084 87.564,-9.564C87.076,-9.044 86.688,-8.404 86.4,-7.644C86.112,-6.884 85.968,-6.008 85.968,-5.016L85.968,0L84.792,0L84.792,-12.24Z" style="fill:white;fill-rule:nonzero;"/>
            </g>
        </g>
    </g>
</svg>
