<?xml version="1.0" encoding="UTF-8" standalone="no"?><!DOCTYPE svg PUBLIC "-//W3C//DTD SVG 1.1//EN" "http://www.w3.org/Graphics/SVG/1.1/DTD/svg11.dtd"><svg width="100%" height="100%" viewBox="0 0 34 5" version="1.1" xmlns="http://www.w3.org/2000/svg" xmlns:xlink="http://www.w3.org/1999/xlink" xml:space="preserve" style="fill-rule:evenodd;clip-rule:evenodd;stroke-linejoin:round;stroke-miterlimit:1.41421;"><g><path d="M6.222,0.916l0.208,0l0,1.296l1.792,0l0,-1.296l0.208,0l0,2.8l-0.208,0l0,-1.312l-1.792,0l0,1.312l-0.208,0l0,-2.8Z" style="fill:#fff;fill-rule:nonzero;"/><path d="M9.718,3.764c-0.096,0 -0.191,-0.013 -0.284,-0.04c-0.093,-0.027 -0.177,-0.067 -0.252,-0.12c-0.075,-0.053 -0.135,-0.12 -0.182,-0.2c-0.047,-0.08 -0.07,-0.173 -0.07,-0.28l0,-0.008c0,-0.107 0.022,-0.201 0.066,-0.284c0.044,-0.083 0.105,-0.152 0.182,-0.208c0.077,-0.056 0.171,-0.099 0.28,-0.128c0.109,-0.029 0.231,-0.044 0.364,-0.044c0.144,0 0.268,0.008 0.372,0.024c0.104,0.016 0.205,0.037 0.304,0.064l0,-0.088c0,-0.208 -0.059,-0.364 -0.178,-0.468c-0.119,-0.104 -0.283,-0.156 -0.494,-0.156c-0.125,0 -0.24,0.015 -0.344,0.046c-0.104,0.031 -0.203,0.07 -0.296,0.118l-0.072,-0.172c0.112,-0.053 0.225,-0.096 0.34,-0.128c0.115,-0.032 0.243,-0.048 0.384,-0.048c0.28,0 0.495,0.075 0.644,0.224c0.139,0.139 0.208,0.331 0.208,0.576l0,1.272l-0.192,0l0,-0.34c-0.035,0.048 -0.077,0.095 -0.126,0.142c-0.049,0.047 -0.106,0.088 -0.17,0.124c-0.064,0.036 -0.137,0.065 -0.218,0.088c-0.081,0.023 -0.17,0.034 -0.266,0.034Zm0.012,-0.184c0.104,0 0.203,-0.015 0.296,-0.046c0.093,-0.031 0.175,-0.073 0.246,-0.128c0.071,-0.055 0.127,-0.121 0.168,-0.198c0.041,-0.077 0.062,-0.163 0.062,-0.256l0,-0.232c-0.085,-0.021 -0.185,-0.042 -0.3,-0.062c-0.115,-0.02 -0.245,-0.03 -0.392,-0.03c-0.216,0 -0.382,0.043 -0.498,0.13c-0.116,0.087 -0.174,0.202 -0.174,0.346l0,0.008c0,0.075 0.016,0.141 0.048,0.198c0.032,0.057 0.075,0.106 0.13,0.146c0.055,0.04 0.118,0.071 0.19,0.092c0.072,0.021 0.147,0.032 0.224,0.032Z" style="fill:#fff;fill-rule:nonzero;"/><path d="M11.394,1.676l0.196,0l0,0.38c0.069,-0.12 0.163,-0.221 0.28,-0.304c0.117,-0.083 0.269,-0.124 0.456,-0.124c0.128,0 0.243,0.021 0.344,0.062c0.101,0.041 0.187,0.099 0.258,0.174c0.071,0.075 0.124,0.163 0.16,0.266c0.036,0.103 0.054,0.215 0.054,0.338l0,1.248l-0.196,0l0,-1.212c0,-0.211 -0.056,-0.379 -0.168,-0.506c-0.112,-0.127 -0.272,-0.19 -0.48,-0.19c-0.101,0 -0.195,0.018 -0.28,0.054c-0.085,0.036 -0.16,0.086 -0.224,0.15c-0.064,0.064 -0.114,0.141 -0.15,0.23c-0.036,0.089 -0.054,0.187 -0.054,0.294l0,1.18l-0.196,0l0,-2.04Z" style="fill:#fff;fill-rule:nonzero;"/><path d="M14.706,3.764c-0.123,0 -0.243,-0.024 -0.362,-0.072c-0.119,-0.048 -0.225,-0.117 -0.318,-0.208c-0.093,-0.091 -0.169,-0.202 -0.226,-0.334c-0.057,-0.132 -0.086,-0.281 -0.086,-0.446l0,-0.008c0,-0.165 0.029,-0.314 0.086,-0.446c0.057,-0.132 0.133,-0.244 0.226,-0.336c0.093,-0.092 0.199,-0.163 0.318,-0.212c0.119,-0.049 0.239,-0.074 0.362,-0.074c0.101,0 0.195,0.013 0.28,0.04c0.085,0.027 0.162,0.063 0.23,0.108c0.068,0.045 0.129,0.097 0.184,0.156c0.055,0.059 0.103,0.12 0.146,0.184l0,-1.32l0.196,0l0,2.92l-0.196,0l0,-0.456c-0.045,0.067 -0.095,0.131 -0.15,0.192c-0.055,0.061 -0.116,0.115 -0.184,0.16c-0.068,0.045 -0.144,0.082 -0.228,0.11c-0.084,0.028 -0.177,0.042 -0.278,0.042Zm0.02,-0.188c0.107,0 0.21,-0.021 0.31,-0.064c0.1,-0.043 0.189,-0.103 0.266,-0.18c0.077,-0.077 0.139,-0.169 0.186,-0.276c0.047,-0.107 0.07,-0.225 0.07,-0.356l0,-0.008c0,-0.131 -0.023,-0.25 -0.07,-0.358c-0.047,-0.108 -0.109,-0.2 -0.186,-0.276c-0.077,-0.076 -0.166,-0.135 -0.266,-0.178c-0.1,-0.043 -0.203,-0.064 -0.31,-0.064c-0.112,0 -0.217,0.02 -0.314,0.06c-0.097,0.04 -0.182,0.097 -0.254,0.172c-0.072,0.075 -0.129,0.166 -0.17,0.274c-0.041,0.108 -0.062,0.23 -0.062,0.366l0,0.008c0,0.133 0.021,0.255 0.064,0.364c0.043,0.109 0.101,0.202 0.174,0.278c0.073,0.076 0.159,0.135 0.256,0.176c0.097,0.041 0.199,0.062 0.306,0.062Z" style="fill:#fff;fill-rule:nonzero;"/><rect x="16.514" y="0.796" width="0.196" height="2.92" style="fill:#fff;fill-rule:nonzero;"/><path d="M18.342,3.764c-0.133,0 -0.261,-0.025 -0.382,-0.076c-0.121,-0.051 -0.228,-0.123 -0.32,-0.216c-0.092,-0.093 -0.165,-0.205 -0.218,-0.336c-0.053,-0.131 -0.08,-0.276 -0.08,-0.436l0,-0.008c0,-0.147 0.025,-0.285 0.074,-0.414c0.049,-0.129 0.117,-0.242 0.204,-0.338c0.087,-0.096 0.189,-0.172 0.306,-0.228c0.117,-0.056 0.245,-0.084 0.384,-0.084c0.144,0 0.273,0.027 0.388,0.082c0.115,0.055 0.213,0.13 0.294,0.226c0.081,0.096 0.144,0.209 0.188,0.338c0.044,0.129 0.066,0.27 0.066,0.422c0,0.019 0,0.033 0,0.042c0,0.009 -0.001,0.022 -0.004,0.038l-1.692,0c0.008,0.128 0.036,0.241 0.084,0.34c0.048,0.099 0.108,0.183 0.18,0.252c0.072,0.069 0.154,0.122 0.246,0.158c0.092,0.036 0.189,0.054 0.29,0.054c0.16,0 0.295,-0.031 0.406,-0.092c0.111,-0.061 0.209,-0.137 0.294,-0.228l0.136,0.12c-0.104,0.112 -0.222,0.204 -0.354,0.276c-0.132,0.072 -0.295,0.108 -0.49,0.108Zm0.692,-1.164c-0.008,-0.104 -0.029,-0.203 -0.062,-0.298c-0.033,-0.095 -0.08,-0.179 -0.14,-0.252c-0.06,-0.073 -0.134,-0.132 -0.222,-0.176c-0.088,-0.044 -0.191,-0.066 -0.308,-0.066c-0.101,0 -0.196,0.02 -0.284,0.06c-0.088,0.04 -0.165,0.095 -0.23,0.166c-0.065,0.071 -0.119,0.155 -0.162,0.252c-0.043,0.097 -0.068,0.202 -0.076,0.314l1.484,0Z" style="fill:#fff;fill-rule:nonzero;"/><path d="M19.818,1.676l0.196,0l0,0.58c0.04,-0.091 0.091,-0.175 0.152,-0.252c0.061,-0.077 0.131,-0.143 0.208,-0.198c0.077,-0.055 0.162,-0.096 0.254,-0.124c0.092,-0.028 0.189,-0.041 0.29,-0.038l0,0.216l-0.02,0c-0.117,0 -0.229,0.022 -0.336,0.066c-0.107,0.044 -0.201,0.109 -0.282,0.196c-0.081,0.087 -0.146,0.193 -0.194,0.32c-0.048,0.127 -0.072,0.273 -0.072,0.438l0,0.836l-0.196,0l0,-2.04Z" style="fill:#fff;fill-rule:nonzero;"/></g><circle cx="2.319" cy="2.319" r="2.319" style="fill:#fff;"/><path d="M2.318,0.87c-0.045,0 -0.073,0.027 -0.094,0.066c-0.001,0.003 -1.152,2.641 -1.152,2.641c-0.003,0.007 -0.004,0.014 -0.004,0.021c0,0.01 0.002,0.02 0.008,0.029c0.01,0.015 0.026,0.024 0.044,0.024l1.043,0c0.028,0 0.051,-0.023 0.052,-0.051l0.104,-2.611l0.104,2.611c0.001,0.028 0.024,0.051 0.052,0.051l1.043,0c0.018,0 0.034,-0.009 0.044,-0.024c0.006,-0.009 0.008,-0.019 0.008,-0.029c0,-0.007 -0.001,-0.014 -0.004,-0.021l-1.139,-2.612c-0.019,-0.05 -0.054,-0.095 -0.109,-0.095l0,0Z" style="fill-rule:nonzero;"/></svg>