<?xml version="1.0" encoding="UTF-8" standalone="no"?>
<!DOCTYPE svg PUBLIC "-//W3C//DTD SVG 1.1//EN" "http://www.w3.org/Graphics/SVG/1.1/DTD/svg11.dtd">
<svg width="100%" height="100%" viewBox="0 0 407 100" version="1.1" xmlns="http://www.w3.org/2000/svg" xmlns:xlink="http://www.w3.org/1999/xlink" xml:space="preserve" style="fill-rule:evenodd;clip-rule:evenodd;stroke-linejoin:round;stroke-miterlimit:1.41421;">
    <g transform="matrix(3.125,0,0,3.125,0,0)">
        <g transform="matrix(0.384434,0,5.60271e-35,0.384434,-27.3653,-296.958)">
            <circle cx="112.803" cy="814.076" r="41.62" style="fill:rgb(29,161,242);"/>
        </g>
        <g transform="matrix(1.30544e-17,-0.213194,0.213194,1.30544e-17,5.23368,26.1469)">
            <path d="M94.5,50.474C94.5,49.009 93.601,48.098 92.338,47.432C92.262,47.384 6.888,10.144 6.888,10.144C6.669,10.045 6.438,10 6.204,10C5.877,10 5.554,10.089 5.271,10.272C4.789,10.582 4.5,11.119 4.5,11.686L4.5,45.459C4.5,46.369 5.221,47.11 6.135,47.145L90.627,50.5L6.135,53.849C5.221,53.887 4.5,54.628 4.5,55.539L4.5,89.312C4.5,89.877 4.789,90.414 5.271,90.727C5.553,90.906 5.877,91 6.204,91C6.435,91 6.667,90.953 6.888,90.854L91.407,53.999C93.047,53.377 94.5,52.249 94.5,50.474Z" style="fill:white;fill-rule:nonzero;"/>
        </g>
        <g transform="matrix(1,0,0,1,36.009,24.9216)">
            <g>
                <g>
                    <path d="M2.16,-16.8L5.112,-16.8L5.112,-9.816L13.128,-9.816L13.128,-16.8L16.08,-16.8L16.08,0L13.128,0L13.128,-7.08L5.112,-7.08L5.112,0L2.16,0L2.16,-16.8Z" style="fill:none;"/>
                    <path d="M23.712,0.264C23.12,0.264 22.552,0.18 22.008,0.012C21.464,-0.156 20.988,-0.404 20.58,-0.732C20.172,-1.06 19.844,-1.468 19.596,-1.956C19.348,-2.444 19.224,-3.008 19.224,-3.648L19.224,-3.696C19.224,-4.384 19.352,-4.984 19.608,-5.496C19.864,-6.008 20.22,-6.432 20.676,-6.768C21.132,-7.104 21.684,-7.356 22.332,-7.524C22.98,-7.692 23.688,-7.776 24.456,-7.776C25.176,-7.776 25.8,-7.728 26.328,-7.632C26.856,-7.536 27.368,-7.408 27.864,-7.248L27.864,-7.56C27.864,-8.472 27.596,-9.16 27.06,-9.624C26.524,-10.088 25.744,-10.32 24.72,-10.32C24,-10.32 23.36,-10.248 22.8,-10.104C22.24,-9.96 21.672,-9.768 21.096,-9.528L20.328,-11.808C21.032,-12.128 21.752,-12.38 22.488,-12.564C23.224,-12.748 24.096,-12.84 25.104,-12.84C26.992,-12.84 28.392,-12.368 29.304,-11.424C29.768,-10.96 30.112,-10.4 30.336,-9.744C30.56,-9.088 30.672,-8.344 30.672,-7.512L30.672,0L27.84,0L27.84,-1.584C27.408,-1.072 26.856,-0.636 26.184,-0.276C25.512,0.084 24.688,0.264 23.712,0.264ZM24.528,-1.848C25.008,-1.848 25.456,-1.912 25.872,-2.04C26.288,-2.168 26.644,-2.352 26.94,-2.592C27.236,-2.832 27.472,-3.12 27.648,-3.456C27.824,-3.792 27.912,-4.16 27.912,-4.56L27.912,-5.424C27.544,-5.568 27.116,-5.688 26.628,-5.784C26.14,-5.88 25.608,-5.928 25.032,-5.928C24.088,-5.928 23.356,-5.744 22.836,-5.376C22.316,-5.008 22.056,-4.488 22.056,-3.816L22.056,-3.768C22.056,-3.16 22.292,-2.688 22.764,-2.352C23.236,-2.016 23.824,-1.848 24.528,-1.848Z" style="fill:none;"/>
                    <path d="M34.152,-12.672L37.056,-12.672L37.056,-10.728C37.264,-11.016 37.492,-11.296 37.74,-11.568C37.988,-11.84 38.276,-12.076 38.604,-12.276C38.932,-12.476 39.292,-12.636 39.684,-12.756C40.076,-12.876 40.52,-12.936 41.016,-12.936C42.456,-12.936 43.568,-12.496 44.352,-11.616C45.136,-10.736 45.528,-9.56 45.528,-8.088L45.528,0L42.624,0L42.624,-7.2C42.624,-8.192 42.388,-8.956 41.916,-9.492C41.444,-10.028 40.776,-10.296 39.912,-10.296C39.064,-10.296 38.376,-10.02 37.848,-9.468C37.32,-8.916 37.056,-8.144 37.056,-7.152L37.056,0L34.152,0L34.152,-12.672Z" style="fill:none;"/>
                    <path d="M54.264,0.264C53.512,0.264 52.784,0.12 52.08,-0.168C51.376,-0.456 50.752,-0.88 50.208,-1.44C49.664,-2 49.224,-2.688 48.888,-3.504C48.552,-4.32 48.384,-5.256 48.384,-6.312L48.384,-6.36C48.384,-7.416 48.548,-8.352 48.876,-9.168C49.204,-9.984 49.64,-10.672 50.184,-11.232C50.728,-11.792 51.356,-12.216 52.068,-12.504C52.78,-12.792 53.512,-12.936 54.264,-12.936C54.792,-12.936 55.268,-12.876 55.692,-12.756C56.116,-12.636 56.504,-12.472 56.856,-12.264C57.208,-12.056 57.528,-11.82 57.816,-11.556C58.104,-11.292 58.36,-11.008 58.584,-10.704L58.584,-17.52L61.488,-17.52L61.488,0L58.584,0L58.584,-2.112C58.12,-1.456 57.54,-0.896 56.844,-0.432C56.148,0.032 55.288,0.264 54.264,0.264ZM54.96,-2.256C55.44,-2.256 55.904,-2.352 56.352,-2.544C56.8,-2.736 57.192,-3.012 57.528,-3.372C57.864,-3.732 58.132,-4.16 58.332,-4.656C58.532,-5.152 58.632,-5.704 58.632,-6.312L58.632,-6.36C58.632,-6.968 58.532,-7.524 58.332,-8.028C58.132,-8.532 57.864,-8.96 57.528,-9.312C57.192,-9.664 56.8,-9.936 56.352,-10.128C55.904,-10.32 55.44,-10.416 54.96,-10.416C54.464,-10.416 53.996,-10.324 53.556,-10.14C53.116,-9.956 52.728,-9.688 52.392,-9.336C52.056,-8.984 51.792,-8.556 51.6,-8.052C51.408,-7.548 51.312,-6.984 51.312,-6.36L51.312,-6.312C51.312,-5.704 51.408,-5.148 51.6,-4.644C51.792,-4.14 52.056,-3.712 52.392,-3.36C52.728,-3.008 53.116,-2.736 53.556,-2.544C53.996,-2.352 54.464,-2.256 54.96,-2.256Z" style="fill:none;"/>
                    <rect x="65.304" y="-17.52" width="2.904" height="17.52" style="fill:none;"/>
                    <path d="M77.808,0.288C76.896,0.288 76.044,0.128 75.252,-0.192C74.46,-0.512 73.772,-0.96 73.188,-1.536C72.604,-2.112 72.144,-2.804 71.808,-3.612C71.472,-4.42 71.304,-5.312 71.304,-6.288L71.304,-6.336C71.304,-7.248 71.456,-8.104 71.76,-8.904C72.064,-9.704 72.492,-10.404 73.044,-11.004C73.596,-11.604 74.248,-12.076 75,-12.42C75.752,-12.764 76.584,-12.936 77.496,-12.936C78.504,-12.936 79.388,-12.752 80.148,-12.384C80.908,-12.016 81.54,-11.52 82.044,-10.896C82.548,-10.272 82.928,-9.548 83.184,-8.724C83.44,-7.9 83.568,-7.032 83.568,-6.12C83.568,-5.992 83.564,-5.86 83.556,-5.724C83.548,-5.588 83.536,-5.448 83.52,-5.304L74.208,-5.304C74.368,-4.264 74.78,-3.468 75.444,-2.916C76.108,-2.364 76.912,-2.088 77.856,-2.088C78.576,-2.088 79.2,-2.216 79.728,-2.472C80.256,-2.728 80.776,-3.104 81.288,-3.6L82.992,-2.088C82.384,-1.368 81.66,-0.792 80.82,-0.36C79.98,0.072 78.976,0.288 77.808,0.288ZM80.688,-7.224C80.64,-7.688 80.536,-8.124 80.376,-8.532C80.216,-8.94 80,-9.292 79.728,-9.588C79.456,-9.884 79.132,-10.12 78.756,-10.296C78.38,-10.472 77.952,-10.56 77.472,-10.56C76.576,-10.56 75.836,-10.252 75.252,-9.636C74.668,-9.02 74.312,-8.216 74.184,-7.224L80.688,-7.224Z" style="fill:none;"/>
                    <path d="M86.496,-12.672L89.4,-12.672L89.4,-9.816C89.8,-10.776 90.368,-11.544 91.104,-12.12C91.84,-12.696 92.768,-12.96 93.888,-12.912L93.888,-9.84L93.72,-9.84C93.08,-9.84 92.496,-9.736 91.968,-9.528C91.44,-9.32 90.984,-9.008 90.6,-8.592C90.216,-8.176 89.92,-7.652 89.712,-7.02C89.504,-6.388 89.4,-5.656 89.4,-4.824L89.4,0L86.496,0L86.496,-12.672Z" style="fill:none;"/>
                    <path d="M2.16,-16.8L5.112,-16.8L5.112,-9.816L13.128,-9.816L13.128,-16.8L16.08,-16.8L16.08,0L13.128,0L13.128,-7.08L5.112,-7.08L5.112,0L2.16,0L2.16,-16.8Z" style="fill:white;fill-rule:nonzero;"/>
                    <path d="M23.712,0.264C23.12,0.264 22.552,0.18 22.008,0.012C21.464,-0.156 20.988,-0.404 20.58,-0.732C20.172,-1.06 19.844,-1.468 19.596,-1.956C19.348,-2.444 19.224,-3.008 19.224,-3.648L19.224,-3.696C19.224,-4.384 19.352,-4.984 19.608,-5.496C19.864,-6.008 20.22,-6.432 20.676,-6.768C21.132,-7.104 21.684,-7.356 22.332,-7.524C22.98,-7.692 23.688,-7.776 24.456,-7.776C25.176,-7.776 25.8,-7.728 26.328,-7.632C26.856,-7.536 27.368,-7.408 27.864,-7.248L27.864,-7.56C27.864,-8.472 27.596,-9.16 27.06,-9.624C26.524,-10.088 25.744,-10.32 24.72,-10.32C24,-10.32 23.36,-10.248 22.8,-10.104C22.24,-9.96 21.672,-9.768 21.096,-9.528L20.328,-11.808C21.032,-12.128 21.752,-12.38 22.488,-12.564C23.224,-12.748 24.096,-12.84 25.104,-12.84C26.992,-12.84 28.392,-12.368 29.304,-11.424C29.768,-10.96 30.112,-10.4 30.336,-9.744C30.56,-9.088 30.672,-8.344 30.672,-7.512L30.672,0L27.84,0L27.84,-1.584C27.408,-1.072 26.856,-0.636 26.184,-0.276C25.512,0.084 24.688,0.264 23.712,0.264ZM24.528,-1.848C25.008,-1.848 25.456,-1.912 25.872,-2.04C26.288,-2.168 26.644,-2.352 26.94,-2.592C27.236,-2.832 27.472,-3.12 27.648,-3.456C27.824,-3.792 27.912,-4.16 27.912,-4.56L27.912,-5.424C27.544,-5.568 27.116,-5.688 26.628,-5.784C26.14,-5.88 25.608,-5.928 25.032,-5.928C24.088,-5.928 23.356,-5.744 22.836,-5.376C22.316,-5.008 22.056,-4.488 22.056,-3.816L22.056,-3.768C22.056,-3.16 22.292,-2.688 22.764,-2.352C23.236,-2.016 23.824,-1.848 24.528,-1.848Z" style="fill:white;fill-rule:nonzero;"/>
                    <path d="M34.152,-12.672L37.056,-12.672L37.056,-10.728C37.264,-11.016 37.492,-11.296 37.74,-11.568C37.988,-11.84 38.276,-12.076 38.604,-12.276C38.932,-12.476 39.292,-12.636 39.684,-12.756C40.076,-12.876 40.52,-12.936 41.016,-12.936C42.456,-12.936 43.568,-12.496 44.352,-11.616C45.136,-10.736 45.528,-9.56 45.528,-8.088L45.528,0L42.624,0L42.624,-7.2C42.624,-8.192 42.388,-8.956 41.916,-9.492C41.444,-10.028 40.776,-10.296 39.912,-10.296C39.064,-10.296 38.376,-10.02 37.848,-9.468C37.32,-8.916 37.056,-8.144 37.056,-7.152L37.056,0L34.152,0L34.152,-12.672Z" style="fill:white;fill-rule:nonzero;"/>
                    <path d="M54.264,0.264C53.512,0.264 52.784,0.12 52.08,-0.168C51.376,-0.456 50.752,-0.88 50.208,-1.44C49.664,-2 49.224,-2.688 48.888,-3.504C48.552,-4.32 48.384,-5.256 48.384,-6.312L48.384,-6.36C48.384,-7.416 48.548,-8.352 48.876,-9.168C49.204,-9.984 49.64,-10.672 50.184,-11.232C50.728,-11.792 51.356,-12.216 52.068,-12.504C52.78,-12.792 53.512,-12.936 54.264,-12.936C54.792,-12.936 55.268,-12.876 55.692,-12.756C56.116,-12.636 56.504,-12.472 56.856,-12.264C57.208,-12.056 57.528,-11.82 57.816,-11.556C58.104,-11.292 58.36,-11.008 58.584,-10.704L58.584,-17.52L61.488,-17.52L61.488,0L58.584,0L58.584,-2.112C58.12,-1.456 57.54,-0.896 56.844,-0.432C56.148,0.032 55.288,0.264 54.264,0.264ZM54.96,-2.256C55.44,-2.256 55.904,-2.352 56.352,-2.544C56.8,-2.736 57.192,-3.012 57.528,-3.372C57.864,-3.732 58.132,-4.16 58.332,-4.656C58.532,-5.152 58.632,-5.704 58.632,-6.312L58.632,-6.36C58.632,-6.968 58.532,-7.524 58.332,-8.028C58.132,-8.532 57.864,-8.96 57.528,-9.312C57.192,-9.664 56.8,-9.936 56.352,-10.128C55.904,-10.32 55.44,-10.416 54.96,-10.416C54.464,-10.416 53.996,-10.324 53.556,-10.14C53.116,-9.956 52.728,-9.688 52.392,-9.336C52.056,-8.984 51.792,-8.556 51.6,-8.052C51.408,-7.548 51.312,-6.984 51.312,-6.36L51.312,-6.312C51.312,-5.704 51.408,-5.148 51.6,-4.644C51.792,-4.14 52.056,-3.712 52.392,-3.36C52.728,-3.008 53.116,-2.736 53.556,-2.544C53.996,-2.352 54.464,-2.256 54.96,-2.256Z" style="fill:white;fill-rule:nonzero;"/>
                    <rect x="65.304" y="-17.52" width="2.904" height="17.52" style="fill:white;fill-rule:nonzero;"/>
                    <path d="M77.808,0.288C76.896,0.288 76.044,0.128 75.252,-0.192C74.46,-0.512 73.772,-0.96 73.188,-1.536C72.604,-2.112 72.144,-2.804 71.808,-3.612C71.472,-4.42 71.304,-5.312 71.304,-6.288L71.304,-6.336C71.304,-7.248 71.456,-8.104 71.76,-8.904C72.064,-9.704 72.492,-10.404 73.044,-11.004C73.596,-11.604 74.248,-12.076 75,-12.42C75.752,-12.764 76.584,-12.936 77.496,-12.936C78.504,-12.936 79.388,-12.752 80.148,-12.384C80.908,-12.016 81.54,-11.52 82.044,-10.896C82.548,-10.272 82.928,-9.548 83.184,-8.724C83.44,-7.9 83.568,-7.032 83.568,-6.12C83.568,-5.992 83.564,-5.86 83.556,-5.724C83.548,-5.588 83.536,-5.448 83.52,-5.304L74.208,-5.304C74.368,-4.264 74.78,-3.468 75.444,-2.916C76.108,-2.364 76.912,-2.088 77.856,-2.088C78.576,-2.088 79.2,-2.216 79.728,-2.472C80.256,-2.728 80.776,-3.104 81.288,-3.6L82.992,-2.088C82.384,-1.368 81.66,-0.792 80.82,-0.36C79.98,0.072 78.976,0.288 77.808,0.288ZM80.688,-7.224C80.64,-7.688 80.536,-8.124 80.376,-8.532C80.216,-8.94 80,-9.292 79.728,-9.588C79.456,-9.884 79.132,-10.12 78.756,-10.296C78.38,-10.472 77.952,-10.56 77.472,-10.56C76.576,-10.56 75.836,-10.252 75.252,-9.636C74.668,-9.02 74.312,-8.216 74.184,-7.224L80.688,-7.224Z" style="fill:white;fill-rule:nonzero;"/>
                    <path d="M86.496,-12.672L89.4,-12.672L89.4,-9.816C89.8,-10.776 90.368,-11.544 91.104,-12.12C91.84,-12.696 92.768,-12.96 93.888,-12.912L93.888,-9.84L93.72,-9.84C93.08,-9.84 92.496,-9.736 91.968,-9.528C91.44,-9.32 90.984,-9.008 90.6,-8.592C90.216,-8.176 89.92,-7.652 89.712,-7.02C89.504,-6.388 89.4,-5.656 89.4,-4.824L89.4,0L86.496,0L86.496,-12.672Z" style="fill:white;fill-rule:nonzero;"/>
                </g>
            </g>
        </g>
    </g>
</svg>
