<?xml version="1.0" encoding="UTF-8" standalone="no"?><!DOCTYPE svg PUBLIC "-//W3C//DTD SVG 1.1//EN" "http://www.w3.org/Graphics/SVG/1.1/DTD/svg11.dtd"><svg width="100%" height="100%" viewBox="0 0 407 100" version="1.1" xmlns="http://www.w3.org/2000/svg" xmlns:xlink="http://www.w3.org/1999/xlink" xml:space="preserve" style="fill-rule:evenodd;clip-rule:evenodd;stroke-linejoin:round;stroke-miterlimit:1.41421;"><g><circle cx="50" cy="50.002" r="50" style="fill:#50acee;"/><path d="M49.983,18.75c-0.976,0 -1.583,0.599 -2.027,1.441c-0.032,0.05 -24.843,56.929 -24.843,56.929c-0.065,0.146 -0.095,0.3 -0.095,0.456c0,0.218 0.059,0.433 0.181,0.621c0.206,0.321 0.564,0.514 0.942,0.514l22.5,0c0.607,0 1.1,-0.48 1.124,-1.089l2.235,-56.291l2.231,56.291c0.025,0.609 0.519,1.089 1.126,1.089l22.501,0c0.376,0 0.734,-0.193 0.942,-0.514c0.12,-0.188 0.182,-0.403 0.182,-0.621c0,-0.154 -0.031,-0.309 -0.097,-0.456l-24.554,-56.309c-0.414,-1.093 -1.166,-2.061 -2.348,-2.061Z" style="fill:#fff;fill-rule:nonzero;"/><g><g transform="matrix(3.125,0,0,3.125,112.528,77.88)"><path d="M2.16,-16.8l2.952,0l0,6.984l8.016,0l0,-6.984l2.952,0l0,16.8l-2.952,0l0,-7.08l-8.016,0l0,7.08l-2.952,0l0,-16.8Z" style="fill:none;"/><path d="M23.712,0.264c-0.592,0 -1.16,-0.084 -1.704,-0.252c-0.544,-0.168 -1.02,-0.416 -1.428,-0.744c-0.408,-0.328 -0.736,-0.736 -0.984,-1.224c-0.248,-0.488 -0.372,-1.052 -0.372,-1.692l0,-0.048c0,-0.688 0.128,-1.288 0.384,-1.8c0.256,-0.512 0.612,-0.936 1.068,-1.272c0.456,-0.336 1.008,-0.588 1.656,-0.756c0.648,-0.168 1.356,-0.252 2.124,-0.252c0.72,0 1.344,0.048 1.872,0.144c0.528,0.096 1.04,0.224 1.536,0.384l0,-0.312c0,-0.912 -0.268,-1.6 -0.804,-2.064c-0.536,-0.464 -1.316,-0.696 -2.34,-0.696c-0.72,0 -1.36,0.072 -1.92,0.216c-0.56,0.144 -1.128,0.336 -1.704,0.576l-0.768,-2.28c0.704,-0.32 1.424,-0.572 2.16,-0.756c0.736,-0.184 1.608,-0.276 2.616,-0.276c1.888,0 3.288,0.472 4.2,1.416c0.464,0.464 0.808,1.024 1.032,1.68c0.224,0.656 0.336,1.4 0.336,2.232l0,7.512l-2.832,0l0,-1.584c-0.432,0.512 -0.984,0.948 -1.656,1.308c-0.672,0.36 -1.496,0.54 -2.472,0.54Zm0.816,-2.112c0.48,0 0.928,-0.064 1.344,-0.192c0.416,-0.128 0.772,-0.312 1.068,-0.552c0.296,-0.24 0.532,-0.528 0.708,-0.864c0.176,-0.336 0.264,-0.704 0.264,-1.104l0,-0.864c-0.368,-0.144 -0.796,-0.264 -1.284,-0.36c-0.488,-0.096 -1.02,-0.144 -1.596,-0.144c-0.944,0 -1.676,0.184 -2.196,0.552c-0.52,0.368 -0.78,0.888 -0.78,1.56l0,0.048c0,0.608 0.236,1.08 0.708,1.416c0.472,0.336 1.06,0.504 1.764,0.504Z" style="fill:none;"/><path d="M34.152,-12.672l2.904,0l0,1.944c0.208,-0.288 0.436,-0.568 0.684,-0.84c0.248,-0.272 0.536,-0.508 0.864,-0.708c0.328,-0.2 0.688,-0.36 1.08,-0.48c0.392,-0.12 0.836,-0.18 1.332,-0.18c1.44,0 2.552,0.44 3.336,1.32c0.784,0.88 1.176,2.056 1.176,3.528l0,8.088l-2.904,0l0,-7.2c0,-0.992 -0.236,-1.756 -0.708,-2.292c-0.472,-0.536 -1.14,-0.804 -2.004,-0.804c-0.848,0 -1.536,0.276 -2.064,0.828c-0.528,0.552 -0.792,1.324 -0.792,2.316l0,7.152l-2.904,0l0,-12.672Z" style="fill:none;"/><path d="M54.264,0.264c-0.752,0 -1.48,-0.144 -2.184,-0.432c-0.704,-0.288 -1.328,-0.712 -1.872,-1.272c-0.544,-0.56 -0.984,-1.248 -1.32,-2.064c-0.336,-0.816 -0.504,-1.752 -0.504,-2.808l0,-0.048c0,-1.056 0.164,-1.992 0.492,-2.808c0.328,-0.816 0.764,-1.504 1.308,-2.064c0.544,-0.56 1.172,-0.984 1.884,-1.272c0.712,-0.288 1.444,-0.432 2.196,-0.432c0.528,0 1.004,0.06 1.428,0.18c0.424,0.12 0.812,0.284 1.164,0.492c0.352,0.208 0.672,0.444 0.96,0.708c0.288,0.264 0.544,0.548 0.768,0.852l0,-6.816l2.904,0l0,17.52l-2.904,0l0,-2.112c-0.464,0.656 -1.044,1.216 -1.74,1.68c-0.696,0.464 -1.556,0.696 -2.58,0.696Zm0.696,-2.52c0.48,0 0.944,-0.096 1.392,-0.288c0.448,-0.192 0.84,-0.468 1.176,-0.828c0.336,-0.36 0.604,-0.788 0.804,-1.284c0.2,-0.496 0.3,-1.048 0.3,-1.656l0,-0.048c0,-0.608 -0.1,-1.164 -0.3,-1.668c-0.2,-0.504 -0.468,-0.932 -0.804,-1.284c-0.336,-0.352 -0.728,-0.624 -1.176,-0.816c-0.448,-0.192 -0.912,-0.288 -1.392,-0.288c-0.496,0 -0.964,0.092 -1.404,0.276c-0.44,0.184 -0.828,0.452 -1.164,0.804c-0.336,0.352 -0.6,0.78 -0.792,1.284c-0.192,0.504 -0.288,1.068 -0.288,1.692l0,0.048c0,0.608 0.096,1.164 0.288,1.668c0.192,0.504 0.456,0.932 0.792,1.284c0.336,0.352 0.724,0.624 1.164,0.816c0.44,0.192 0.908,0.288 1.404,0.288Z" style="fill:none;"/><rect x="65.304" y="-17.52" width="2.904" height="17.52" style="fill:none;"/><path d="M77.808,0.288c-0.912,0 -1.764,-0.16 -2.556,-0.48c-0.792,-0.32 -1.48,-0.768 -2.064,-1.344c-0.584,-0.576 -1.044,-1.268 -1.38,-2.076c-0.336,-0.808 -0.504,-1.7 -0.504,-2.676l0,-0.048c0,-0.912 0.152,-1.768 0.456,-2.568c0.304,-0.8 0.732,-1.5 1.284,-2.1c0.552,-0.6 1.204,-1.072 1.956,-1.416c0.752,-0.344 1.584,-0.516 2.496,-0.516c1.008,0 1.892,0.184 2.652,0.552c0.76,0.368 1.392,0.864 1.896,1.488c0.504,0.624 0.884,1.348 1.14,2.172c0.256,0.824 0.384,1.692 0.384,2.604c0,0.128 -0.004,0.26 -0.012,0.396c-0.008,0.136 -0.02,0.276 -0.036,0.42l-9.312,0c0.16,1.04 0.572,1.836 1.236,2.388c0.664,0.552 1.468,0.828 2.412,0.828c0.72,0 1.344,-0.128 1.872,-0.384c0.528,-0.256 1.048,-0.632 1.56,-1.128l1.704,1.512c-0.608,0.72 -1.332,1.296 -2.172,1.728c-0.84,0.432 -1.844,0.648 -3.012,0.648Zm2.88,-7.512c-0.048,-0.464 -0.152,-0.9 -0.312,-1.308c-0.16,-0.408 -0.376,-0.76 -0.648,-1.056c-0.272,-0.296 -0.596,-0.532 -0.972,-0.708c-0.376,-0.176 -0.804,-0.264 -1.284,-0.264c-0.896,0 -1.636,0.308 -2.22,0.924c-0.584,0.616 -0.94,1.42 -1.068,2.412l6.504,0Z" style="fill:none;"/><path d="M86.496,-12.672l2.904,0l0,2.856c0.4,-0.96 0.968,-1.728 1.704,-2.304c0.736,-0.576 1.664,-0.84 2.784,-0.792l0,3.072l-0.168,0c-0.64,0 -1.224,0.104 -1.752,0.312c-0.528,0.208 -0.984,0.52 -1.368,0.936c-0.384,0.416 -0.68,0.94 -0.888,1.572c-0.208,0.632 -0.312,1.364 -0.312,2.196l0,4.824l-2.904,0l0,-12.672Z" style="fill:none;"/><path d="M2.16,-16.8l2.952,0l0,6.984l8.016,0l0,-6.984l2.952,0l0,16.8l-2.952,0l0,-7.08l-8.016,0l0,7.08l-2.952,0l0,-16.8Z" style="fill:#fff;fill-rule:nonzero;"/><path d="M23.712,0.264c-0.592,0 -1.16,-0.084 -1.704,-0.252c-0.544,-0.168 -1.02,-0.416 -1.428,-0.744c-0.408,-0.328 -0.736,-0.736 -0.984,-1.224c-0.248,-0.488 -0.372,-1.052 -0.372,-1.692l0,-0.048c0,-0.688 0.128,-1.288 0.384,-1.8c0.256,-0.512 0.612,-0.936 1.068,-1.272c0.456,-0.336 1.008,-0.588 1.656,-0.756c0.648,-0.168 1.356,-0.252 2.124,-0.252c0.72,0 1.344,0.048 1.872,0.144c0.528,0.096 1.04,0.224 1.536,0.384l0,-0.312c0,-0.912 -0.268,-1.6 -0.804,-2.064c-0.536,-0.464 -1.316,-0.696 -2.34,-0.696c-0.72,0 -1.36,0.072 -1.92,0.216c-0.56,0.144 -1.128,0.336 -1.704,0.576l-0.768,-2.28c0.704,-0.32 1.424,-0.572 2.16,-0.756c0.736,-0.184 1.608,-0.276 2.616,-0.276c1.888,0 3.288,0.472 4.2,1.416c0.464,0.464 0.808,1.024 1.032,1.68c0.224,0.656 0.336,1.4 0.336,2.232l0,7.512l-2.832,0l0,-1.584c-0.432,0.512 -0.984,0.948 -1.656,1.308c-0.672,0.36 -1.496,0.54 -2.472,0.54Zm0.816,-2.112c0.48,0 0.928,-0.064 1.344,-0.192c0.416,-0.128 0.772,-0.312 1.068,-0.552c0.296,-0.24 0.532,-0.528 0.708,-0.864c0.176,-0.336 0.264,-0.704 0.264,-1.104l0,-0.864c-0.368,-0.144 -0.796,-0.264 -1.284,-0.36c-0.488,-0.096 -1.02,-0.144 -1.596,-0.144c-0.944,0 -1.676,0.184 -2.196,0.552c-0.52,0.368 -0.78,0.888 -0.78,1.56l0,0.048c0,0.608 0.236,1.08 0.708,1.416c0.472,0.336 1.06,0.504 1.764,0.504Z" style="fill:#fff;fill-rule:nonzero;"/><path d="M34.152,-12.672l2.904,0l0,1.944c0.208,-0.288 0.436,-0.568 0.684,-0.84c0.248,-0.272 0.536,-0.508 0.864,-0.708c0.328,-0.2 0.688,-0.36 1.08,-0.48c0.392,-0.12 0.836,-0.18 1.332,-0.18c1.44,0 2.552,0.44 3.336,1.32c0.784,0.88 1.176,2.056 1.176,3.528l0,8.088l-2.904,0l0,-7.2c0,-0.992 -0.236,-1.756 -0.708,-2.292c-0.472,-0.536 -1.14,-0.804 -2.004,-0.804c-0.848,0 -1.536,0.276 -2.064,0.828c-0.528,0.552 -0.792,1.324 -0.792,2.316l0,7.152l-2.904,0l0,-12.672Z" style="fill:#fff;fill-rule:nonzero;"/><path d="M54.264,0.264c-0.752,0 -1.48,-0.144 -2.184,-0.432c-0.704,-0.288 -1.328,-0.712 -1.872,-1.272c-0.544,-0.56 -0.984,-1.248 -1.32,-2.064c-0.336,-0.816 -0.504,-1.752 -0.504,-2.808l0,-0.048c0,-1.056 0.164,-1.992 0.492,-2.808c0.328,-0.816 0.764,-1.504 1.308,-2.064c0.544,-0.56 1.172,-0.984 1.884,-1.272c0.712,-0.288 1.444,-0.432 2.196,-0.432c0.528,0 1.004,0.06 1.428,0.18c0.424,0.12 0.812,0.284 1.164,0.492c0.352,0.208 0.672,0.444 0.96,0.708c0.288,0.264 0.544,0.548 0.768,0.852l0,-6.816l2.904,0l0,17.52l-2.904,0l0,-2.112c-0.464,0.656 -1.044,1.216 -1.74,1.68c-0.696,0.464 -1.556,0.696 -2.58,0.696Zm0.696,-2.52c0.48,0 0.944,-0.096 1.392,-0.288c0.448,-0.192 0.84,-0.468 1.176,-0.828c0.336,-0.36 0.604,-0.788 0.804,-1.284c0.2,-0.496 0.3,-1.048 0.3,-1.656l0,-0.048c0,-0.608 -0.1,-1.164 -0.3,-1.668c-0.2,-0.504 -0.468,-0.932 -0.804,-1.284c-0.336,-0.352 -0.728,-0.624 -1.176,-0.816c-0.448,-0.192 -0.912,-0.288 -1.392,-0.288c-0.496,0 -0.964,0.092 -1.404,0.276c-0.44,0.184 -0.828,0.452 -1.164,0.804c-0.336,0.352 -0.6,0.78 -0.792,1.284c-0.192,0.504 -0.288,1.068 -0.288,1.692l0,0.048c0,0.608 0.096,1.164 0.288,1.668c0.192,0.504 0.456,0.932 0.792,1.284c0.336,0.352 0.724,0.624 1.164,0.816c0.44,0.192 0.908,0.288 1.404,0.288Z" style="fill:#fff;fill-rule:nonzero;"/><rect x="65.304" y="-17.52" width="2.904" height="17.52" style="fill:#fff;fill-rule:nonzero;"/><path d="M77.808,0.288c-0.912,0 -1.764,-0.16 -2.556,-0.48c-0.792,-0.32 -1.48,-0.768 -2.064,-1.344c-0.584,-0.576 -1.044,-1.268 -1.38,-2.076c-0.336,-0.808 -0.504,-1.7 -0.504,-2.676l0,-0.048c0,-0.912 0.152,-1.768 0.456,-2.568c0.304,-0.8 0.732,-1.5 1.284,-2.1c0.552,-0.6 1.204,-1.072 1.956,-1.416c0.752,-0.344 1.584,-0.516 2.496,-0.516c1.008,0 1.892,0.184 2.652,0.552c0.76,0.368 1.392,0.864 1.896,1.488c0.504,0.624 0.884,1.348 1.14,2.172c0.256,0.824 0.384,1.692 0.384,2.604c0,0.128 -0.004,0.26 -0.012,0.396c-0.008,0.136 -0.02,0.276 -0.036,0.42l-9.312,0c0.16,1.04 0.572,1.836 1.236,2.388c0.664,0.552 1.468,0.828 2.412,0.828c0.72,0 1.344,-0.128 1.872,-0.384c0.528,-0.256 1.048,-0.632 1.56,-1.128l1.704,1.512c-0.608,0.72 -1.332,1.296 -2.172,1.728c-0.84,0.432 -1.844,0.648 -3.012,0.648Zm2.88,-7.512c-0.048,-0.464 -0.152,-0.9 -0.312,-1.308c-0.16,-0.408 -0.376,-0.76 -0.648,-1.056c-0.272,-0.296 -0.596,-0.532 -0.972,-0.708c-0.376,-0.176 -0.804,-0.264 -1.284,-0.264c-0.896,0 -1.636,0.308 -2.22,0.924c-0.584,0.616 -0.94,1.42 -1.068,2.412l6.504,0Z" style="fill:#fff;fill-rule:nonzero;"/><path d="M86.496,-12.672l2.904,0l0,2.856c0.4,-0.96 0.968,-1.728 1.704,-2.304c0.736,-0.576 1.664,-0.84 2.784,-0.792l0,3.072l-0.168,0c-0.64,0 -1.224,0.104 -1.752,0.312c-0.528,0.208 -0.984,0.52 -1.368,0.936c-0.384,0.416 -0.68,0.94 -0.888,1.572c-0.208,0.632 -0.312,1.364 -0.312,2.196l0,4.824l-2.904,0l0,-12.672Z" style="fill:#fff;fill-rule:nonzero;"/></g></g></g></svg>